<svg xmlns="http://www.w3.org/2000/svg" viewBox="0 0 64 64" role="img" aria-label="Ads Acceleration logo">
  <defs>
    <linearGradient id="rocketGrad" x1="0" y1="0" x2="1" y2="1">
      <stop offset="0%" stop-color="#ffcc00"/>
      <stop offset="100%" stop-color="#e50914"/>
    </linearGradient>
  </defs>
  <rect x="2" y="2" width="60" height="60" rx="14" fill="#111318"/>
  <path
    d="M24 42l5-2 9-9c3-3 4-7 4-12 0-1-.9-2-2-2-5 0-9 1-12 4l-9 9-2 5 7 7zm9-18a3 3 0 110 6 3 3 0 010-6z"
    fill="url(#rocketGrad)"
  />
  <path d="M22 44l-2 7 7-2" fill="none" stroke="#ffcc00" stroke-width="3" stroke-linecap="round" stroke-linejoin="round"/>
  <path d="M16 48c1-4 4-7 8-8" fill="none" stroke="#e50914" stroke-width="3" stroke-linecap="round"/>
</svg>
